# xmcd
#
# Track frame offsets:
#   150
#   12357
#   26169
#   42142
#   57329
#   75396
#   93214
#   108487
#   127723
#   140956
#   155034
#   170013
#   183387
#   199061
#   215540
#   232307
#   247046
#   261795
#   277536
#   295323
#   308087
#   325341
#
# Disc length: 4579 seconds
#
# Revision: 0
# Processed by: cddbd v1.5PL3 Copyright (c) Steve Scherf et al.
# Submitted via: Media_Universe 3.0
#
DISCID=3f11e116
DTITLE=Toby Keith - Pull My Chain
DYEAR=1900
DGENRE=Country
TTITLE0=I'm Not Tlking About Tonight
TTITLE1=I Wanna Talk About Me
TTITLE2=I Can't Leave You Anywhere
TTITLE3=You Leave Me Weak
TTITLE4=Trying To Matter
TTITLE5=Pull My Chain
TTITLE6=The Sha La La Song
TTITLE7=Pick Em Up And Lay Em Down
TTITLE8=Forever Hasn't Got Here Yet
TTITLE9=Yesterday's Rain
TTITLE10=My List
TTITLE11=How Do You Like Me Now
TTITLE12=Country Comes To Town
TTITLE13=Hold You, Kiss You, Love You
TTITLE14=Getcha Some
TTITLE15=Should've Been A Cowboy
TTITLE16=Dream Walkin' 
TTITLE17=A Little Less Talk, A Lot More Action
TTITLE18=Does That Blue Moon Ever Shine On You
TTITLE19=I'm So Happy I Can't Stop Crying
TTITLE20=
TTITLE21=
EXTD=
EXTT0=
EXTT1=
EXTT2=
EXTT3=
EXTT4=
EXTT5=
EXTT6=
EXTT7=
EXTT8=
EXTT9=
EXTT10=
EXTT11=
EXTT12=
EXTT13=
EXTT14=
EXTT15=
EXTT16=
EXTT17=
EXTT18=
EXTT19=
EXTT20=
EXTT21=
PLAYORDER=
